{"title":"Game of Lions - NatGeoWildHD - 720p HDTV","uid":9283563,"size":1621265927,"categoryP":"video","categoryS":"hd___tv_shows","magnet":"?xt=urn:btih:e6e5913ed3e6ec3c7a5d3e6ad6c2db8e86eb9733&amp;dn=Game+of+Lions+-+NatGeoWildHD+-+720p+HDTV&amp;tr=udp%3A%2F%2Ftracker.openbittorrent.com%3A80&amp;tr=udp%3A%2F%2Fopen.demonii.com%3A1337&amp;tr=udp%3A%2F%2Ftracker.coppersurfer.tk%3A6969&amp;tr=udp%3A%2F%2Fexodus.desync.com%3A6969","seeders":2,"leechers":0,"uploader":"speedingcheetah","files":2,"time":1385972785,"description":"Game of Lions\n\nNat Geo WILD HD\n &lt;a href=&quot;\nhttp://channel.nationalgeographic.com/wild/big-cat-week/galleries/game-of-lions/at/ready-for-an-adventure-2075168/&quot; rel=&quot;nofollow&quot; target=&quot;_NEW&quot;&gt;\nhttp://channel.nationalgeographic.com/wild/big-cat-week/galleries/game-of-lions/at/ready-for-an-adventure-2075168/&lt;/a&gt;\n\n\nGeneral\nComplete name                            : Game Of Lions NGWILD-720p.mp4\nFormat                                   : MPEG-4\nFormat profile                           : Base Media / Version 2\nCodec ID                                 : mp42\nFile size                                : 1.51 GiB\nDuration                                 : 44mn 11s\nOverall bit rate                         : 4 891 Kbps\nEncoded date                             : UTC 2013-12-02 04:42:10\nTagged date                              : UTC 2013-12-02 07:10:53\nWriting application                      : HandBrake 0.9.9 2013052900\n\nVideo\nID                                       : 1\nFormat                                   : AVC\nFormat/Info                              : Advanced Video Codec\nFormat profile                           : &lt;a class=&quot;__cf_email__&quot; href=&quot;/cdn-cgi/l/email-protection&quot; data-cfemail=&quot;763e1f111e363a455844&quot;&gt;[email&amp;#160;protected]&lt;/a&gt;&lt;script cf-hash='f9e31' type=&quot;text/javascript&quot;&gt;\n/* &lt;![CDATA[ */!function(){try{var t=&quot;currentScript&quot;in document?document.currentScript:function(){for(var t=document.getElementsByTagName(&quot;script&quot;),e=t.length;e--;)if(t[e].getAttribute(&quot;cf-hash&quot;))return t[e]}();if(t&amp;&amp;t.previousSibling){var e,r,n,i,c=t.previousSibling,a=c.getAttribute(&quot;data-cfemail&quot;);if(a){for(e=&quot;&quot;,r=parseInt(a.substr(0,2),16),n=2;a.length-n;n+=2)i=parseInt(a.substr(n,2),16)^r,e+=String.fromCharCode(i);e=document.createTextNode(e),c.parentNode.replaceChild(e,c)}}}catch(u){}}();/* ]]&gt; */&lt;/script&gt;\nFormat settings, CABAC                   : Yes\nFormat settings, ReFrames                : 5 frames\nCodec ID                                 : avc1\nCodec ID/Info                            : Advanced Video Coding\nDuration                                 : 44mn 11s\nBit rate mode                            : Variable\nBit rate                                 : 4 496 Kbps\nWidth                                    : 1 280 pixels\nHeight                                   : 720 pixels\nDisplay aspect ratio                     : 16:9\nFrame rate mode                          : Variable\nFrame rate                               : 59.940 fps\nMinimum frame rate                       : 59.920 fps\nMaximum frame rate                       : 59.960 fps\nColor space                              : YUV\nChroma subsampling                       : 4:2:0\nBit depth                                : 8 bits\nScan type                                : Progressive\nBits/(Pixel*Frame)                       : 0.081\nStream size                              : 1.39 GiB (92%)\nWriting library                          : x264 core 130 r2273 b3065e6\nEncoding settings                        : cabac=1 / ref=5 / deblock=1:-1:-1 / analyse=0x3:0x133 / me=tesa / subme=9 / psy=1 / psy_rd=1.10:0.50 / mixed_ref=1 / me_range=20 / chroma_me=1 / trellis=2 / 8x8dct=1 / cqm=0 / deadzone=21,11 / fast_pskip=1 / chroma_qp_offset=-4 / threads=12 / lookahead_threads=1 / sliced_threads=0 / nr=0 / decimate=0 / interlaced=0 / bluray_compat=0 / constrained_intra=0 / bframes=5 / b_pyramid=2 / b_adapt=2 / b_bias=0 / direct=1 / weightb=1 / open_gop=0 / weightp=2 / keyint=600 / keyint_min=60 / scenecut=40 / intra_refresh=0 / rc_lookahead=40 / rc=crf / mbtree=1 / crf=22.8 / qcomp=0.60 / qpmin=0 / qpmax=69 / qpstep=4 / ip_ratio=1.40 / aq=1:1.00\nEncoded date                             : UTC 2013-12-02 04:42:10\nTagged date                              : UTC 2013-12-02 07:10:53\nColor primaries                          : BT.709\nTransfer characteristics                 : BT.709\nMatrix coefficients                      : BT.709\n\nAudio\nID                                       : 2\nFormat                                   : AC-3\nFormat/Info                              : Audio Coding 3\nMode extension                           : CM (complete main)\nFormat settings, Endianness              : Big\nCodec ID                                 : ac-3\nDuration                                 : 44mn 11s\nBit rate mode                            : Constant\nBit rate                                 : 384 Kbps\nChannel count                            : 6 channels\nChannel positions                        : Front: L C R, Side: L R, LFE\nSampling rate                            : 48.0 KHz\nBit depth                                : 16 bits\nCompression mode                         : Lossy\nDelay relative to video                  : 33ms\nStream size                              : 121 MiB (8%)\nLanguage                                 : English\nEncoded date                             : UTC 2013-12-02 04:42:10\nTagged date                              : UTC 2013-12-02 07:10:52\n\n","torrent":{"xt":"urn:btih:e6e5913ed3e6ec3c7a5d3e6ad6c2db8e86eb9733","amp;dn":"Game+of+Lions+-+NatGeoWildHD+-+720p+HDTV","amp;tr":["udp%3A%2F%2Ftracker.openbittorrent.com%3A80","udp%3A%2F%2Fopen.demonii.com%3A1337","udp%3A%2F%2Ftracker.coppersurfer.tk%3A6969","udp%3A%2F%2Fexodus.desync.com%3A6969"],"infoHash":"e6e5913ed3e6ec3c7a5d3e6ad6c2db8e86eb9733","infoHashBuffer":{"type":"Buffer","data":[230,229,145,62,211,230,236,60,122,93,62,106,214,194,219,142,134,235,151,51]},"announce":[],"urlList":[]}}